HIERARCHY
ROOT Hips
{
  OFFSET 0.000 65.709 0.000
  CHANNELS 6 Xposition Yposition Zposition Zrotation Xrotation Yrotation
  JOINT LeftUpLeg
  {
    OFFSET 7.817 0.623 3.481
    CHANNELS 6 Xposition Yposition Zposition Zrotation Xrotation Yrotation
    JOINT LeftLeg
    {
      OFFSET 0.000 -34.652 0.000
      CHANNELS 6 Xposition Yposition Zposition Zrotation Xrotation Yrotation
      JOINT LeftFoot
      {
        OFFSET 0.000 -31.679 0.000
        CHANNELS 6 Xposition Yposition Zposition Zrotation Xrotation Yrotation
        End Site
        {
          OFFSET 0.000 0.000 9.478
        }
      }
    }
  }
  JOINT RightUpLeg
  {
    OFFSET -7.817 0.623 3.481
    CHANNELS 6 Xposition Yposition Zposition Zrotation Xrotation Yrotation
    JOINT RightLeg
    {
      OFFSET 0.000 -34.652 0.000
      CHANNELS 6 Xposition Yposition Zposition Zrotation Xrotation Yrotation
      JOINT RightFoot
      {
        OFFSET 0.000 -31.679 0.000
        CHANNELS 6 Xposition Yposition Zposition Zrotation Xrotation Yrotation
        End Site
        {
          OFFSET 0.000 0.000 9.478
        }
      }
    }
  }
  JOINT Spine
  {
    OFFSET 0.000 32.459 0.000
    CHANNELS 6 Xposition Yposition Zposition Zrotation Xrotation Yrotation
    JOINT Spine1
    {
      OFFSET 0.000 23.815 0.000
      CHANNELS 6 Xposition Yposition Zposition Zrotation Xrotation Yrotation
      JOINT LeftShoulder
      {
        OFFSET 1.709 -0.423 0.171
        CHANNELS 6 Xposition Yposition Zposition Zrotation Xrotation Yrotation
        JOINT LeftArm
        {
          OFFSET 15.712 0.000 0.000
          CHANNELS 6 Xposition Yposition Zposition Zrotation Xrotation Yrotation
          JOINT LeftForeArm
          {
            OFFSET 24.654 0.000 0.000
            CHANNELS 6 Xposition Yposition Zposition Zrotation Xrotation Yrotation
            JOINT LeftHand
            {
              OFFSET 21.736 0.000 0.000
              CHANNELS 6 Xposition Yposition Zposition Zrotation Xrotation Yrotation
              JOINT LeftHandThumb1
              {
                OFFSET 4.877 -1.044 3.608
                CHANNELS 6 Xposition Yposition Zposition Zrotation Xrotation Yrotation
                JOINT LeftHandThumb2
                {
                  OFFSET 2.665 -0.000 0.000
                  CHANNELS 6 Xposition Yposition Zposition Zrotation Xrotation Yrotation
                  JOINT LeftHandThumb3
                  {
                    OFFSET 2.543 0.000 0.000
                    CHANNELS 6 Xposition Yposition Zposition Zrotation Xrotation Yrotation
                    End Site
                    {
                      OFFSET 2.667 -0.000 0.000
                    }
                  }
                }
              }
              JOINT LeftHandIndex1
              {
                OFFSET 9.232 -0.301 2.144
                CHANNELS 6 Xposition Yposition Zposition Zrotation Xrotation Yrotation
                JOINT LeftHandIndex2
                {
                  OFFSET 4.225 0.000 0.000
                  CHANNELS 6 Xposition Yposition Zposition Zrotation Xrotation Yrotation
                  JOINT LeftHandIndex3
                  {
                    OFFSET 2.654 0.000 0.000
                    CHANNELS 6 Xposition Yposition Zposition Zrotation Xrotation Yrotation
                    End Site
                    {
                      OFFSET 1.958 -0.000 0.000
                    }
                  }
                }
              }
              JOINT LeftHandMiddle1
              {
                OFFSET 8.920 0.000 0.000
                CHANNELS 6 Xposition Yposition Zposition Zrotation Xrotation Yrotation
                JOINT LeftHandMiddle2
                {
                  OFFSET 4.863 0.000 -0.000
                  CHANNELS 6 Xposition Yposition Zposition Zrotation Xrotation Yrotation
                  JOINT LeftHandMiddle3
                  {
                    OFFSET 2.765 -0.000 0.000
                    CHANNELS 6 Xposition Yposition Zposition Zrotation Xrotation Yrotation
                    End Site
                    {
                      OFFSET 2.006 0.000 0.000
                    }
                  }
                }
              }
              JOINT LeftHandRing1
              {
                OFFSET 8.689 -0.126 -2.087
                CHANNELS 6 Xposition Yposition Zposition Zrotation Xrotation Yrotation
                JOINT LeftHandRing2
                {
                  OFFSET 4.538 0.000 -0.000
                  CHANNELS 6 Xposition Yposition Zposition Zrotation Xrotation Yrotation
                  JOINT LeftHandRing3
                  {
                    OFFSET 2.305 -0.000 0.000
                    CHANNELS 6 Xposition Yposition Zposition Zrotation Xrotation Yrotation
                    End Site
                    {
                      OFFSET 1.923 0.000 0.000
                    }
                  }
                }
              }
              JOINT LeftHandPinky1
              {
                OFFSET 8.391 -0.817 -3.758
                CHANNELS 6 Xposition Yposition Zposition Zrotation Xrotation Yrotation
                JOINT LeftHandPinky2
                {
                  OFFSET 3.044 0.000 0.000
                  CHANNELS 6 Xposition Yposition Zposition Zrotation Xrotation Yrotation
                  JOINT LeftHandPinky3
                  {
                    OFFSET 1.975 0.000 0.000
                    CHANNELS 6 Xposition Yposition Zposition Zrotation Xrotation Yrotation
                    End Site
                    {
                      OFFSET 1.667 0.000 -0.000
                    }
                  }
                }
              }
            }
          }
        }
      }
      JOINT RightShoulder
      {
        OFFSET -1.709 -0.423 0.171
        CHANNELS 6 Xposition Yposition Zposition Zrotation Xrotation Yrotation
        JOINT RightArm
        {
          OFFSET -15.712 0.000 0.000
          CHANNELS 6 Xposition Yposition Zposition Zrotation Xrotation Yrotation
          JOINT RightForeArm
          {
            OFFSET -24.654 0.000 0.000
            CHANNELS 6 Xposition Yposition Zposition Zrotation Xrotation Yrotation
            JOINT RightHand
            {
              OFFSET -21.736 0.000 0.000
              CHANNELS 6 Xposition Yposition Zposition Zrotation Xrotation Yrotation
              JOINT RightHandThumb1
              {
                OFFSET -4.877 -1.044 3.608
                CHANNELS 6 Xposition Yposition Zposition Zrotation Xrotation Yrotation
                JOINT RightHandThumb2
                {
                  OFFSET -2.665 0.000 0.000
                  CHANNELS 6 Xposition Yposition Zposition Zrotation Xrotation Yrotation
                  JOINT RightHandThumb3
                  {
                    OFFSET -2.543 -0.000 0.000
                    CHANNELS 6 Xposition Yposition Zposition Zrotation Xrotation Yrotation
                    End Site
                    {
                      OFFSET -2.667 0.000 0.000
                    }
                  }
                }
              }
              JOINT RightHandIndex1
              {
                OFFSET -9.232 -0.301 2.144
                CHANNELS 6 Xposition Yposition Zposition Zrotation Xrotation Yrotation
                JOINT RightHandIndex2
                {
                  OFFSET -4.225 -0.000 0.000
                  CHANNELS 6 Xposition Yposition Zposition Zrotation Xrotation Yrotation
                  JOINT RightHandIndex3
                  {
                    OFFSET -2.654 0.000 0.000
                    CHANNELS 6 Xposition Yposition Zposition Zrotation Xrotation Yrotation
                    End Site
                    {
                      OFFSET -1.958 0.000 0.000
                    }
                  }
                }
              }
              JOINT RightHandMiddle1
              {
                OFFSET -8.920 -0.000 -0.000
                CHANNELS 6 Xposition Yposition Zposition Zrotation Xrotation Yrotation
                JOINT RightHandMiddle2
                {
                  OFFSET -4.863 0.000 -0.000
                  CHANNELS 6 Xposition Yposition Zposition Zrotation Xrotation Yrotation
                  JOINT RightHandMiddle3
                  {
                    OFFSET -2.765 0.000 0.000
                    CHANNELS 6 Xposition Yposition Zposition Zrotation Xrotation Yrotation
                    End Site
                    {
                      OFFSET -2.006 -0.000 0.000
                    }
                  }
                }
              }
              JOINT RightHandRing1
              {
                OFFSET -8.689 -0.126 -2.087
                CHANNELS 6 Xposition Yposition Zposition Zrotation Xrotation Yrotation
                JOINT RightHandRing2
                {
                  OFFSET -4.538 0.000 0.000
                  CHANNELS 6 Xposition Yposition Zposition Zrotation Xrotation Yrotation
                  JOINT RightHandRing3
                  {
                    OFFSET -2.305 0.000 -0.000
                    CHANNELS 6 Xposition Yposition Zposition Zrotation Xrotation Yrotation
                    End Site
                    {
                      OFFSET -1.923 0.000 0.000
                    }
                  }
                }
              }
              JOINT RightHandPinky1
              {
                OFFSET -8.391 -0.817 -3.758
                CHANNELS 6 Xposition Yposition Zposition Zrotation Xrotation Yrotation
                JOINT RightHandPinky2
                {
                  OFFSET -3.044 0.000 0.000
                  CHANNELS 6 Xposition Yposition Zposition Zrotation Xrotation Yrotation
                  JOINT RightHandPinky3
                  {
                    OFFSET -1.975 0.000 0.000
                    CHANNELS 6 Xposition Yposition Zposition Zrotation Xrotation Yrotation
                    End Site
                    {
                      OFFSET -1.667 -0.000 -0.000
                    }
                  }
                }
              }
            }
          }
        }
      }
      JOINT Neck
      {
        OFFSET 0.000 0.779 0.000
        CHANNELS 6 Xposition Yposition Zposition Zrotation Xrotation Yrotation
        JOINT Head
        {
          OFFSET 0.000 7.042 0.000
          CHANNELS 6 Xposition Yposition Zposition Zrotation Xrotation Yrotation
          End Site
          {
            OFFSET 0.000 16.186 0.000
          }
        }
      }
    }
  }
}
MOTION
Frames:	4
Frame Time:	0.033333
12.13306 69.05835 -221.33345 -24.76601 2.76500 17.84561 6.28219 0.88764 3.19924 27.19180 -25.12364 9.28191 0.01168 -33.17463 0.01121 14.04203 25.75178 -13.27862 -0.00020 -28.45023 0.01569 2.84556 22.57980 -7.38615 -9.26596 0.38709 3.19375 15.18320 0.90528 -8.19563 -0.00619 -37.08440 0.00667 4.44745 -4.36932 -19.40316 0.00358 -28.35738 0.00950 3.79738 26.33831 -8.50080 0.01723 33.11795 -0.00642 0.48191 1.83581 -0.94343 0.01615 24.39815 -0.01095 0.87502 2.12886 -1.14969 1.59286 -0.68976 0.10482 -23.49275 1.35795 -3.12873 15.57394 -0.00562 0.00231 -61.35358 6.98065 -22.81867 25.74401 -0.01615 0.02925 -9.78411 0.32283 -8.91885 21.79623 0.01109 0.00349 -16.62130 7.93400 10.30756 4.87700 -1.04399 3.60802 -38.84870 -18.17666 4.02960 2.66500 -0.00001 0.00002 -0.00000 -0.00000 5.00000 2.54299 0.00000 0.00000 -0.00000 0.00000 60.00001 9.23200 -0.30100 2.14401 2.00000 0.00000 -0.00000 4.22501 0.00001 0.00002 2.00000 -0.00000 0.00000 2.65400 0.00001 0.00001 2.00000 0.00000 -0.00000 8.92000 0.00001 0.00002 -80.00000 -0.00000 0.00000 4.86300 0.00001 -0.00001 -90.00000 -0.00000 0.00000 2.76501 -0.00001 0.00000 -70.00000 -0.00000 -0.00000 8.68900 -0.12599 -2.08699 -80.00000 -0.00000 0.00000 4.53801 0.00000 -0.00001 -90.00000 -0.00000 0.00000 2.30500 -0.00001 0.00001 -70.00000 -0.00000 -0.00000 8.39100 -0.81700 -3.75799 2.00000 0.00000 -0.00000 3.04399 0.00001 0.00001 2.00000 -0.00000 0.00000 1.97500 0.00001 0.00001 2.00000 0.00000 -0.00000 -1.47821 -0.46163 0.09195 17.65594 1.12323 3.54257 -13.74462 -0.01062 0.02701 49.77447 2.40126 -0.40335 -28.99795 0.02642 0.01043 24.82366 11.81575 21.01504 -24.36360 0.00325 0.00517 40.06339 30.77710 5.28123 -4.87700 -1.04401 3.60800 40.90540 11.75461 -3.91033 -2.66500 0.00000 0.00000 -0.00000 -0.00000 -5.00000 -2.54300 -0.00001 0.00001 0.00000 -0.00000 -60.00000 -9.23201 -0.30100 2.14398 -2.00000 -0.00000 -0.00000 -4.22500 -0.00001 0.00001 -2.00000 0.00000 -0.00000 -2.65400 0.00001 0.00000 -2.00000 0.00000 0.00000 -8.92000 -0.00001 -0.00001 80.00000 -0.00000 0.00001 -4.86301 0.00000 -0.00001 90.00000 0.00000 0.00001 -2.76500 0.00001 0.00000 70.00000 0.00000 0.00001 -8.68899 -0.12600 -2.08702 80.00000 -0.00000 0.00001 -4.53799 0.00001 0.00002 90.00000 0.00000 0.00001 -2.30501 0.00000 -0.00001 70.00000 0.00000 0.00001 -8.39100 -0.81700 -3.75800 -2.00000 -0.00000 -0.00000 -3.04400 0.00000 0.00000 -2.00000 0.00000 -0.00000 -1.97499 0.00001 0.00002 -2.00000 0.00000 0.00000 -0.00003 0.79282 0.00005 0.00002 -0.00009 0.00004 0.03265 7.18999 0.01176 -8.05889 6.30768 -5.80841 
12.19991 68.92381 -221.26073 -24.96563 2.77118 18.06135 6.26670 0.88740 3.19221 27.22424 -25.43656 9.24969 0.01143 -33.18484 0.01112 14.31999 26.07361 -13.40547 -0.00030 -28.34436 0.01444 2.81836 22.65963 -7.29075 -9.28115 0.39390 3.18811 15.29165 0.89464 -7.97406 -0.00644 -37.08618 0.00596 4.42349 -4.51481 -19.58568 0.00345 -28.27203 0.00950 3.87214 26.61151 -8.58558 0.01319 33.16051 -0.00595 0.53167 1.82321 -1.05797 0.01280 24.41839 -0.01087 0.88867 2.12943 -1.26474 1.58996 -0.69543 0.10398 -23.68039 1.35964 -3.10164 15.57849 -0.00509 0.00256 -61.28407 6.49975 -22.99494 25.84288 -0.00904 0.02371 -10.36166 0.00630 -8.49310 21.76174 0.00996 0.00675 -15.45701 5.72184 9.70777 4.87700 -1.04399 3.60802 -38.84870 -18.17666 4.02960 2.66500 -0.00001 0.00002 -0.00000 -0.00000 5.00000 2.54299 0.00000 0.00000 -0.00000 0.00000 60.00001 9.23200 -0.30100 2.14401 2.00000 0.00000 -0.00000 4.22501 0.00001 0.00002 2.00000 -0.00000 0.00000 2.65400 0.00001 0.00001 2.00000 0.00000 -0.00000 8.92000 0.00001 0.00002 -80.00000 -0.00000 0.00000 4.86300 0.00001 -0.00001 -90.00000 -0.00000 0.00000 2.76501 -0.00001 0.00000 -70.00000 -0.00000 -0.00000 8.68900 -0.12599 -2.08699 -80.00000 -0.00000 0.00000 4.53801 0.00000 -0.00001 -90.00000 -0.00000 0.00000 2.30500 -0.00001 0.00001 -70.00000 -0.00000 -0.00000 8.39100 -0.81700 -3.75799 2.00000 0.00000 -0.00000 3.04399 0.00001 0.00001 2.00000 -0.00000 0.00000 1.97500 0.00001 0.00001 2.00000 0.00000 -0.00000 -1.47631 -0.46091 0.09210 17.63816 1.11164 3.50724 -13.76908 -0.00883 0.02372 49.75509 3.13846 -0.32935 -29.02728 0.02068 0.00745 24.45550 12.02683 21.21909 -24.38796 0.00200 0.00564 39.38607 30.35542 6.39635 -4.87700 -1.04401 3.60800 40.90540 11.75461 -3.91033 -2.66500 0.00000 0.00000 -0.00000 -0.00000 -5.00000 -2.54300 -0.00001 0.00001 0.00000 -0.00000 -60.00000 -9.23201 -0.30100 2.14398 -2.00000 -0.00000 -0.00000 -4.22500 -0.00001 0.00001 -2.00000 0.00000 -0.00000 -2.65400 0.00001 0.00000 -2.00000 0.00000 0.00000 -8.92000 -0.00001 -0.00001 80.00000 -0.00000 0.00001 -4.86301 0.00000 -0.00001 90.00000 0.00000 0.00001 -2.76500 0.00001 0.00000 70.00000 0.00000 0.00001 -8.68899 -0.12600 -2.08702 80.00000 -0.00000 0.00001 -4.53799 0.00001 0.00002 90.00000 0.00000 0.00001 -2.30501 0.00000 -0.00001 70.00000 0.00000 0.00001 -8.39100 -0.81700 -3.75800 -2.00000 -0.00000 -0.00000 -3.04400 0.00000 0.00000 -2.00000 0.00000 -0.00000 -1.97499 0.00001 0.00002 -2.00000 0.00000 0.00000 -0.00003 0.79308 0.00005 0.00002 -0.00009 0.00004 0.02930 7.19511 0.01152 -7.90148 6.30228 -5.77468 
12.25185 68.81944 -221.18831 -25.09900 2.75438 18.15232 6.25919 0.88750 3.18964 27.24421 -25.61497 9.29481 0.01117 -33.19295 0.01102 14.59668 26.35698 -13.50803 -0.00040 -28.26985 0.01367 2.80839 22.59638 -7.28328 -9.28821 0.39790 3.18791 15.37452 0.93640 -7.67412 -0.00670 -37.08422 0.00528 4.40578 -4.63061 -19.77478 0.00330 -28.20660 0.00950 3.99549 26.79100 -8.80233 0.00994 33.19409 -0.00556 0.56897 1.82590 -1.18474 0.01032 24.43248 -0.01080 0.90147 2.13124 -1.39373 1.58248 -0.69873 0.10317 -23.85576 1.42568 -3.22066 15.53648 -0.00445 0.00277 -61.15784 5.66731 -22.99986 25.88474 -0.00443 0.01868 -10.85675 -0.23525 -8.12183 21.73594 0.00927 0.00981 -14.84569 4.29290 8.90696 4.87700 -1.04399 3.60802 -38.84870 -18.17666 4.02960 2.66500 -0.00001 0.00002 -0.00000 -0.00000 5.00000 2.54299 0.00000 0.00000 -0.00000 0.00000 60.00001 9.23200 -0.30100 2.14401 2.00000 0.00000 -0.00000 4.22501 0.00001 0.00002 2.00000 -0.00000 0.00000 2.65400 0.00001 0.00001 2.00000 0.00000 -0.00000 8.92000 0.00001 0.00002 -80.00000 -0.00000 0.00000 4.86300 0.00001 -0.00001 -90.00000 -0.00000 0.00000 2.76501 -0.00001 0.00000 -70.00000 -0.00000 -0.00000 8.68900 -0.12599 -2.08699 -80.00000 -0.00000 0.00000 4.53801 0.00000 -0.00001 -90.00000 -0.00000 0.00000 2.30500 -0.00001 0.00001 -70.00000 -0.00000 -0.00000 8.39100 -0.81700 -3.75799 2.00000 0.00000 -0.00000 3.04399 0.00001 0.00001 2.00000 -0.00000 0.00000 1.97500 0.00001 0.00001 2.00000 0.00000 -0.00000 -1.47443 -0.46015 0.09210 17.58741 1.14640 3.62373 -13.78261 -0.00712 0.02042 49.75093 3.79024 -0.26565 -29.04912 0.01593 0.00521 24.18564 12.19456 21.38885 -24.44181 0.00081 0.00584 38.76756 29.95198 7.24384 -4.87700 -1.04401 3.60800 40.90540 11.75461 -3.91033 -2.66500 0.00000 0.00000 -0.00000 -0.00000 -5.00000 -2.54300 -0.00001 0.00001 0.00000 -0.00000 -60.00000 -9.23201 -0.30100 2.14398 -2.00000 -0.00000 -0.00000 -4.22500 -0.00001 0.00001 -2.00000 0.00000 -0.00000 -2.65400 0.00001 0.00000 -2.00000 0.00000 0.00000 -8.92000 -0.00001 -0.00001 80.00000 -0.00000 0.00001 -4.86301 0.00000 -0.00001 90.00000 0.00000 0.00001 -2.76500 0.00001 0.00000 70.00000 0.00000 0.00001 -8.68899 -0.12600 -2.08702 80.00000 -0.00000 0.00001 -4.53799 0.00001 0.00002 90.00000 0.00000 0.00001 -2.30501 0.00000 -0.00001 70.00000 0.00000 0.00001 -8.39100 -0.81700 -3.75800 -2.00000 -0.00000 -0.00000 -3.04400 0.00000 0.00000 -2.00000 0.00000 -0.00000 -1.97499 0.00001 0.00002 -2.00000 0.00000 0.00000 -0.00003 0.79333 0.00005 0.00002 -0.00009 0.00004 0.02559 7.19472 0.01125 -7.51462 6.47428 -5.79762 
12.29914 68.74598 -221.11305 -25.17974 2.72653 18.15450 6.25476 0.88941 3.19031 27.23911 -25.67858 9.37491 0.01090 -33.19826 0.01093 14.84360 26.56776 -13.55805 -0.00049 -28.23465 0.01301 2.78185 22.50064 -7.24323 -9.28803 0.39653 3.18939 15.42749 1.01183 -7.36135 -0.00695 -37.09027 0.00463 4.38503 -4.68194 -19.93550 0.00314 -28.18453 0.00950 4.02927 26.61324 -8.93041 0.00792 33.21410 -0.00527 0.60340 1.83716 -1.25388 0.00801 24.43909 -0.01075 0.92465 2.13220 -1.46103 1.56271 -0.69280 0.10230 -23.91815 1.48002 -3.33140 15.35919 -0.00370 0.00293 -60.96257 4.90260 -22.90250 25.99997 -0.00187 0.01431 -11.70218 -0.53966 -8.47362 21.71996 0.00828 0.01097 -13.57867 1.04533 10.17957 4.87700 -1.04399 3.60802 -38.84870 -18.17666 4.02960 2.66500 -0.00001 0.00002 -0.00000 -0.00000 5.00000 2.54299 0.00000 0.00000 -0.00000 0.00000 60.00001 9.23200 -0.30100 2.14401 2.00000 0.00000 -0.00000 4.22501 0.00001 0.00002 2.00000 -0.00000 0.00000 2.65400 0.00001 0.00001 2.00000 0.00000 -0.00000 8.92000 0.00001 0.00002 -80.00000 -0.00000 0.00000 4.86300 0.00001 -0.00001 -90.00000 -0.00000 0.00000 2.76501 -0.00001 0.00000 -70.00000 -0.00000 -0.00000 8.68900 -0.12599 -2.08699 -80.00000 -0.00000 0.00000 4.53801 0.00000 -0.00001 -90.00000 -0.00000 0.00000 2.30500 -0.00001 0.00001 -70.00000 -0.00000 -0.00000 8.39100 -0.81700 -3.75799 2.00000 0.00000 -0.00000 3.04399 0.00001 0.00001 2.00000 -0.00000 0.00000 1.97500 0.00001 0.00001 2.00000 0.00000 -0.00000 -1.47268 -0.45932 0.09194 17.50430 1.16676 3.70253 -13.78718 -0.00554 0.01728 49.75237 4.27009 -0.21764 -29.06544 0.01205 0.00377 23.79365 12.34631 21.61525 -24.29480 -0.00023 0.00583 38.59765 29.35188 7.80563 -4.87700 -1.04401 3.60800 40.90540 11.75461 -3.91033 -2.66500 0.00000 0.00000 -0.00000 -0.00000 -5.00000 -2.54300 -0.00001 0.00001 0.00000 -0.00000 -60.00000 -9.23201 -0.30100 2.14398 -2.00000 -0.00000 -0.00000 -4.22500 -0.00001 0.00001 -2.00000 0.00000 -0.00000 -2.65400 0.00001 0.00000 -2.00000 0.00000 0.00000 -8.92000 -0.00001 -0.00001 80.00000 -0.00000 0.00001 -4.86301 0.00000 -0.00001 90.00000 0.00000 0.00001 -2.76500 0.00001 0.00000 70.00000 0.00000 0.00001 -8.68899 -0.12600 -2.08702 80.00000 -0.00000 0.00001 -4.53799 0.00001 0.00002 90.00000 0.00000 0.00001 -2.30501 0.00000 -0.00001 70.00000 0.00000 0.00001 -8.39100 -0.81700 -3.75800 -2.00000 -0.00000 -0.00000 -3.04400 0.00000 0.00000 -2.00000 0.00000 -0.00000 -1.97499 0.00001 0.00002 -2.00000 0.00000 0.00000 -0.00003 0.79357 0.00005 0.00002 -0.00009 0.00004 0.02165 7.19383 0.01096 -6.79719 6.79271 -5.89133 
